<svg width="50" height="50" viewBox="0 0 50 50" fill="none" xmlns="http://www.w3.org/2000/svg">
<path d="M8.33337 12.5C8.33337 11.9475 8.55287 11.4176 8.94357 11.0269C9.33427 10.6362 9.86417 10.4167 10.4167 10.4167H39.5834C40.1359 10.4167 40.6658 10.6362 41.0565 11.0269C41.4472 11.4176 41.6667 11.9475 41.6667 12.5C41.6667 13.0525 41.4472 13.5824 41.0565 13.9731C40.6658 14.3638 40.1359 14.5833 39.5834 14.5833H10.4167C9.86417 14.5833 9.33427 14.3638 8.94357 13.9731C8.55287 13.5824 8.33337 13.0525 8.33337 12.5Z" fill="#DFD5D5"/>
<path d="M8.33337 37.5C8.33337 36.9475 8.55287 36.4176 8.94357 36.0268C9.33427 35.6361 9.86417 35.4167 10.4167 35.4167H39.5834C40.1359 35.4167 40.6658 35.6361 41.0565 36.0268C41.4472 36.4176 41.6667 36.9475 41.6667 37.5C41.6667 38.0525 41.4472 38.5824 41.0565 38.9731C40.6658 39.3638 40.1359 39.5833 39.5834 39.5833H10.4167C9.86417 39.5833 9.33427 39.3638 8.94357 38.9731C8.55287 38.5824 8.33337 38.0525 8.33337 37.5Z" fill="#DFD5D5"/>
<path d="M22.9167 22.9167C22.3642 22.9167 21.8343 23.1362 21.4436 23.5269C21.0529 23.9176 20.8334 24.4475 20.8334 25C20.8334 25.5525 21.0529 26.0824 21.4436 26.4731C21.8343 26.8638 22.3642 27.0833 22.9167 27.0833H39.5834C40.1359 27.0833 40.6658 26.8638 41.0565 26.4731C41.4472 26.0824 41.6667 25.5525 41.6667 25C41.6667 24.4475 41.4472 23.9176 41.0565 23.5269C40.6658 23.1362 40.1359 22.9167 39.5834 22.9167H22.9167Z" fill="#DFD5D5"/>
</svg>
