<svg width="35" height="35" viewBox="0 0 35 35" fill="none" xmlns="http://www.w3.org/2000/svg">
<g clip-path="url(#clip0)">
<path d="M17.5 6.5625C17.7901 6.5625 18.0683 6.67773 18.2734 6.88285C18.4785 7.08797 18.5938 7.36617 18.5938 7.65625V12.0312C18.5938 12.3213 18.4785 12.5995 18.2734 12.8046C18.0683 13.0098 17.7901 13.125 17.5 13.125C17.2099 13.125 16.9317 13.0098 16.7266 12.8046C16.5215 12.5995 16.4062 12.3213 16.4062 12.0312V7.65625C16.4062 7.36617 16.5215 7.08797 16.7266 6.88285C16.9317 6.67773 17.2099 6.5625 17.5 6.5625V6.5625ZM26.25 24.0625C26.25 26.3831 25.3281 28.6087 23.6872 30.2497C22.0462 31.8906 19.8206 32.8125 17.5 32.8125C15.1794 32.8125 12.9538 31.8906 11.3128 30.2497C9.67187 28.6087 8.75 26.3831 8.75 24.0625V10.9375C8.75 8.61686 9.67187 6.39126 11.3128 4.75032C12.9538 3.10937 15.1794 2.1875 17.5 2.1875C19.8206 2.1875 22.0462 3.10937 23.6872 4.75032C25.3281 6.39126 26.25 8.61686 26.25 10.9375V24.0625ZM17.5 0C14.5992 0 11.8172 1.15234 9.76602 3.20352C7.71484 5.2547 6.5625 8.03669 6.5625 10.9375V24.0625C6.5625 26.9633 7.71484 29.7453 9.76602 31.7965C11.8172 33.8477 14.5992 35 17.5 35C20.4008 35 23.1828 33.8477 25.234 31.7965C27.2852 29.7453 28.4375 26.9633 28.4375 24.0625V10.9375C28.4375 8.03669 27.2852 5.2547 25.234 3.20352C23.1828 1.15234 20.4008 0 17.5 0V0Z" fill="#DFD5D5"/>
</g>
<defs>
<clipPath id="clip0">
<rect width="35" height="35" fill="white"/>
</clipPath>
</defs>
</svg>
